<svg width="49" height="50" viewBox="0 0 49 50" fill="none" xmlns="http://www.w3.org/2000/svg">
<path d="M46.3749 44.3026H43.9443V7.84428C43.9443 7.19966 43.6883 6.58143 43.2324 6.12562C42.7766 5.6698 42.1584 5.41372 41.5138 5.41372C40.8692 5.41372 40.2509 5.6698 39.7951 6.12562C39.3393 6.58143 39.0832 7.19966 39.0832 7.84428V44.3026H34.2221V17.5665C34.2221 16.9219 33.966 16.3037 33.5102 15.8478C33.0544 15.392 32.4362 15.1359 31.7916 15.1359C31.1469 15.1359 30.5287 15.392 30.0729 15.8478C29.6171 16.3037 29.361 16.9219 29.361 17.5665V44.3026H24.4999V27.2887C24.4999 26.6441 24.2438 26.0259 23.788 25.5701C23.3322 25.1142 22.714 24.8582 22.0693 24.8582C21.4247 24.8582 20.8065 25.1142 20.3507 25.5701C19.8949 26.0259 19.6388 26.6441 19.6388 27.2887V44.3026H14.7777V37.0109C14.7777 36.3663 14.5216 35.7481 14.0658 35.2923C13.61 34.8365 12.9917 34.5804 12.3471 34.5804C11.7025 34.5804 11.0843 34.8365 10.6285 35.2923C10.1726 35.7481 9.91656 36.3663 9.91656 37.0109V44.3026H5.05545V2.98317C5.05545 2.33854 4.79937 1.72032 4.34355 1.26451C3.88774 0.808688 3.26952 0.552612 2.62489 0.552612C1.98027 0.552612 1.36205 0.808688 0.906229 1.26451C0.450411 1.72032 0.194336 2.33854 0.194336 2.98317V46.7332C0.194336 47.3778 0.450411 47.996 0.906229 48.4518C1.36205 48.9076 1.98027 49.1637 2.62489 49.1637H46.3749C47.0195 49.1637 47.6377 48.9076 48.0936 48.4518C48.5494 47.996 48.8054 47.3778 48.8054 46.7332C48.8054 46.0885 48.5494 45.4703 48.0936 45.0145C47.6377 44.5587 47.0195 44.3026 46.3749 44.3026Z" fill="#F8F8F8"/>
</svg>
