<svg width="49" height="30" viewBox="0 0 49 30" fill="none" xmlns="http://www.w3.org/2000/svg">
<path d="M48.6183 1.77471C48.3716 1.1808 47.8997 0.708846 47.3058 0.462205C47.0135 0.337661 46.6998 0.271601 46.3821 0.267761H34.2294C33.5847 0.267761 32.9665 0.523837 32.5107 0.979655C32.0549 1.43547 31.7988 2.05369 31.7988 2.69832C31.7988 3.34294 32.0549 3.96116 32.5107 4.41698C32.9665 4.8728 33.5847 5.12887 34.2294 5.12887H40.5245L26.9377 18.7157L18.9412 10.6948C18.7152 10.467 18.4464 10.2862 18.1502 10.1628C17.854 10.0394 17.5363 9.97589 17.2155 9.97589C16.8946 9.97589 16.5769 10.0394 16.2807 10.1628C15.9846 10.2862 15.7157 10.467 15.4898 10.6948L0.906454 25.2782C0.678642 25.5041 0.497823 25.773 0.374427 26.0691C0.25103 26.3653 0.1875 26.683 0.1875 27.0039C0.1875 27.3247 0.25103 27.6424 0.374427 27.9386C0.497823 28.2348 0.678642 28.5036 0.906454 28.7296C1.13241 28.9574 1.40123 29.1382 1.69741 29.2616C1.9936 29.385 2.31129 29.4485 2.63215 29.4485C2.95301 29.4485 3.2707 29.385 3.56688 29.2616C3.86307 29.1382 4.13189 28.9574 4.35784 28.7296L17.2155 15.8476L25.212 23.8685C25.438 24.0963 25.7068 24.2771 26.003 24.4005C26.2992 24.5239 26.6168 24.5874 26.9377 24.5874C27.2586 24.5874 27.5763 24.5239 27.8724 24.4005C28.1686 24.2771 28.4374 24.0963 28.6634 23.8685L43.9516 8.55595V14.8511C43.9516 15.4957 44.2077 16.1139 44.6635 16.5698C45.1193 17.0256 45.7375 17.2817 46.3821 17.2817C47.0268 17.2817 47.645 17.0256 48.1008 16.5698C48.5566 16.1139 48.8127 15.4957 48.8127 14.8511V2.69832C48.8089 2.3807 48.7428 2.06691 48.6183 1.77471Z" fill="#F8F8F8"/>
</svg>
