<svg width="161" height="162" viewBox="0 0 161 162" fill="none" xmlns="http://www.w3.org/2000/svg">
<circle cx="80.4162" cy="81.1" r="80.4167" fill="url(#paint0_linear_104_803)"/>
<path d="M160.833 81.1C160.833 100.578 153.763 119.394 140.937 134.053C128.111 148.712 110.4 158.218 91.0946 160.805C71.789 163.391 52.2007 158.883 35.9683 148.117C19.7358 137.351 7.96263 121.059 2.83547 102.268C-2.29168 83.4766 -0.424263 63.4631 8.09087 45.9448C16.606 28.4265 31.19 14.5942 49.134 7.01719C67.078 -0.559833 87.1622 -1.36652 105.656 4.74697C124.15 10.8605 139.796 23.4785 149.689 40.2575L80.4162 81.1H160.833Z" fill="url(#paint1_linear_104_803)"/>
<path d="M160.833 81.1C160.833 95.6213 156.901 109.872 149.454 122.338C142.008 134.805 131.324 145.023 118.538 151.906C105.752 158.79 91.3409 162.084 76.834 161.437C62.3271 160.79 48.2661 156.227 36.1435 148.233C24.021 140.238 14.2894 129.11 7.98189 116.03C1.67435 102.95 -0.973774 88.4065 0.318647 73.9428C1.61107 59.4791 6.7958 45.6353 15.3224 33.8809C23.8491 22.1265 35.3994 12.9003 48.7473 7.18167L80.4162 81.1H160.833Z" fill="url(#paint2_linear_104_803)"/>
<path d="M160.833 81.1C160.833 98.4133 155.245 115.264 144.901 129.147C134.557 143.031 120.008 153.205 103.418 158.157C86.828 163.109 69.0829 162.575 52.8209 156.634C36.5589 150.693 22.6485 139.662 13.158 125.182L80.4162 81.1H160.833Z" fill="url(#paint3_linear_104_803)"/>
<path d="M160.833 81.1C160.833 93.2945 158.059 105.329 152.723 116.294C147.386 127.259 139.625 136.866 130.028 144.389L80.4162 81.1H160.833Z" fill="url(#paint4_linear_104_803)"/>
<path d="M120.943 106.605V107.35H117.063V106.605H118.583V101.9C118.583 101.75 118.588 101.595 118.598 101.435L117.378 102.47C117.331 102.507 117.285 102.53 117.238 102.54C117.191 102.55 117.146 102.552 117.103 102.545C117.063 102.538 117.026 102.525 116.993 102.505C116.963 102.482 116.938 102.458 116.918 102.435L116.613 102.01L118.763 100.155H119.558V106.605H120.943ZM124.94 106.615C125.17 106.615 125.379 106.578 125.565 106.505C125.752 106.428 125.912 106.325 126.045 106.195C126.179 106.065 126.282 105.91 126.355 105.73C126.429 105.55 126.465 105.355 126.465 105.145C126.465 104.915 126.429 104.71 126.355 104.53C126.285 104.347 126.185 104.192 126.055 104.065C125.929 103.938 125.775 103.842 125.595 103.775C125.415 103.708 125.215 103.675 124.995 103.675C124.765 103.675 124.559 103.715 124.375 103.795C124.192 103.872 124.035 103.977 123.905 104.11C123.775 104.24 123.675 104.393 123.605 104.57C123.535 104.747 123.5 104.932 123.5 105.125C123.5 105.345 123.532 105.547 123.595 105.73C123.659 105.913 123.752 106.07 123.875 106.2C123.999 106.33 124.149 106.432 124.325 106.505C124.505 106.578 124.71 106.615 124.94 106.615ZM124.48 102.84C124.424 102.913 124.367 102.985 124.31 103.055C124.257 103.122 124.205 103.188 124.155 103.255C124.315 103.152 124.492 103.072 124.685 103.015C124.882 102.958 125.094 102.93 125.32 102.93C125.604 102.93 125.874 102.977 126.13 103.07C126.387 103.163 126.612 103.3 126.805 103.48C127.002 103.66 127.157 103.883 127.27 104.15C127.384 104.417 127.44 104.723 127.44 105.07C127.44 105.4 127.38 105.71 127.26 106C127.14 106.287 126.97 106.537 126.75 106.75C126.534 106.96 126.274 107.127 125.97 107.25C125.667 107.37 125.33 107.43 124.96 107.43C124.594 107.43 124.262 107.372 123.965 107.255C123.672 107.138 123.42 106.973 123.21 106.76C123.004 106.543 122.844 106.283 122.73 105.98C122.617 105.673 122.56 105.333 122.56 104.96C122.56 104.64 122.629 104.303 122.765 103.95C122.905 103.593 123.125 103.213 123.425 102.81L125.22 100.405C125.27 100.338 125.34 100.283 125.43 100.24C125.52 100.193 125.624 100.17 125.74 100.17H126.61L124.48 102.84ZM131.908 101.905C131.908 102.185 131.863 102.435 131.773 102.655C131.686 102.875 131.57 103.062 131.423 103.215C131.276 103.365 131.105 103.482 130.908 103.565C130.715 103.645 130.511 103.685 130.298 103.685C130.068 103.685 129.855 103.645 129.658 103.565C129.465 103.482 129.296 103.365 129.153 103.215C129.01 103.062 128.896 102.875 128.813 102.655C128.733 102.435 128.693 102.185 128.693 101.905C128.693 101.618 128.733 101.363 128.813 101.14C128.896 100.917 129.01 100.728 129.153 100.575C129.296 100.418 129.465 100.3 129.658 100.22C129.855 100.137 130.068 100.095 130.298 100.095C130.528 100.095 130.74 100.137 130.933 100.22C131.13 100.3 131.3 100.418 131.443 100.575C131.59 100.728 131.703 100.917 131.783 101.14C131.866 101.363 131.908 101.618 131.908 101.905ZM131.148 101.905C131.148 101.692 131.125 101.512 131.078 101.365C131.035 101.215 130.975 101.095 130.898 101.005C130.821 100.912 130.731 100.845 130.628 100.805C130.525 100.762 130.415 100.74 130.298 100.74C130.181 100.74 130.071 100.762 129.968 100.805C129.865 100.845 129.775 100.912 129.698 101.005C129.625 101.095 129.566 101.215 129.523 101.365C129.48 101.512 129.458 101.692 129.458 101.905C129.458 102.112 129.48 102.288 129.523 102.435C129.566 102.578 129.625 102.695 129.698 102.785C129.775 102.875 129.865 102.94 129.968 102.98C130.071 103.02 130.181 103.04 130.298 103.04C130.415 103.04 130.525 103.02 130.628 102.98C130.731 102.94 130.821 102.875 130.898 102.785C130.975 102.695 131.035 102.578 131.078 102.435C131.125 102.288 131.148 102.112 131.148 101.905ZM134.408 100.33C134.445 100.287 134.486 100.25 134.533 100.22C134.583 100.187 134.651 100.17 134.738 100.17H135.443L130.173 107.195C130.136 107.242 130.093 107.28 130.043 107.31C129.993 107.337 129.933 107.35 129.863 107.35H129.138L134.408 100.33ZM135.903 105.655C135.903 105.935 135.858 106.185 135.768 106.405C135.681 106.625 135.565 106.812 135.418 106.965C135.271 107.115 135.1 107.232 134.903 107.315C134.71 107.395 134.506 107.435 134.293 107.435C134.063 107.435 133.85 107.395 133.653 107.315C133.46 107.232 133.291 107.115 133.148 106.965C133.005 106.812 132.891 106.625 132.808 106.405C132.728 106.185 132.688 105.935 132.688 105.655C132.688 105.368 132.728 105.113 132.808 104.89C132.891 104.667 133.005 104.478 133.148 104.325C133.291 104.168 133.46 104.05 133.653 103.97C133.85 103.89 134.063 103.85 134.293 103.85C134.523 103.85 134.735 103.89 134.928 103.97C135.125 104.05 135.295 104.168 135.438 104.325C135.585 104.478 135.698 104.667 135.778 104.89C135.861 105.113 135.903 105.368 135.903 105.655ZM135.143 105.655C135.143 105.442 135.12 105.262 135.073 105.115C135.03 104.968 134.97 104.85 134.893 104.76C134.816 104.667 134.726 104.6 134.623 104.56C134.52 104.517 134.41 104.495 134.293 104.495C134.173 104.495 134.061 104.517 133.958 104.56C133.858 104.6 133.77 104.667 133.693 104.76C133.62 104.85 133.561 104.968 133.518 105.115C133.475 105.262 133.453 105.442 133.453 105.655C133.453 105.865 133.475 106.042 133.518 106.185C133.561 106.328 133.62 106.445 133.693 106.535C133.77 106.625 133.858 106.69 133.958 106.73C134.061 106.77 134.173 106.79 134.293 106.79C134.41 106.79 134.52 106.77 134.623 106.73C134.726 106.69 134.816 106.625 134.893 106.535C134.97 106.445 135.03 106.328 135.073 106.185C135.12 106.042 135.143 105.865 135.143 105.655Z" fill="black"/>
<path d="M74.9295 123.925C75.0362 123.925 75.1195 123.957 75.1795 124.02C75.2395 124.08 75.2695 124.16 75.2695 124.26V124.85H70.4495V124.515C70.4495 124.448 70.4628 124.378 70.4895 124.305C70.5162 124.228 70.5612 124.16 70.6245 124.1L72.8945 121.825C73.0845 121.635 73.2562 121.452 73.4095 121.275C73.5628 121.098 73.6928 120.923 73.7995 120.75C73.9062 120.573 73.9878 120.393 74.0445 120.21C74.1045 120.027 74.1345 119.833 74.1345 119.63C74.1345 119.43 74.1028 119.255 74.0395 119.105C73.9762 118.952 73.8895 118.825 73.7795 118.725C73.6695 118.625 73.5395 118.55 73.3895 118.5C73.2395 118.45 73.0778 118.425 72.9045 118.425C72.7312 118.425 72.5712 118.45 72.4245 118.5C72.2812 118.55 72.1528 118.62 72.0395 118.71C71.9262 118.8 71.8312 118.907 71.7545 119.03C71.6778 119.153 71.6228 119.287 71.5895 119.43C71.5428 119.557 71.4828 119.642 71.4095 119.685C71.3395 119.728 71.2362 119.738 71.0995 119.715L70.5895 119.625C70.6362 119.292 70.7278 118.998 70.8645 118.745C71.0012 118.492 71.1728 118.28 71.3795 118.11C71.5862 117.937 71.8228 117.807 72.0895 117.72C72.3595 117.633 72.6495 117.59 72.9595 117.59C73.2728 117.59 73.5612 117.637 73.8245 117.73C74.0912 117.82 74.3212 117.952 74.5145 118.125C74.7078 118.298 74.8595 118.51 74.9695 118.76C75.0795 119.007 75.1345 119.287 75.1345 119.6C75.1345 119.867 75.0945 120.115 75.0145 120.345C74.9378 120.572 74.8312 120.788 74.6945 120.995C74.5612 121.202 74.4045 121.403 74.2245 121.6C74.0478 121.793 73.8595 121.99 73.6595 122.19L71.8395 124.05C71.9795 124.013 72.1195 123.983 72.2595 123.96C72.4028 123.937 72.5378 123.925 72.6645 123.925H74.9295ZM78.082 120.35C78.4486 120.273 78.7803 120.235 79.077 120.235C79.4503 120.235 79.7803 120.292 80.067 120.405C80.3536 120.515 80.5936 120.668 80.787 120.865C80.9836 121.058 81.1303 121.288 81.227 121.555C81.327 121.818 81.377 122.105 81.377 122.415C81.377 122.795 81.3103 123.14 81.177 123.45C81.0436 123.76 80.8603 124.025 80.627 124.245C80.3936 124.465 80.117 124.635 79.797 124.755C79.4803 124.872 79.1386 124.93 78.772 124.93C78.5553 124.93 78.3486 124.908 78.152 124.865C77.9586 124.822 77.777 124.765 77.607 124.695C77.437 124.622 77.2786 124.538 77.132 124.445C76.9886 124.352 76.8603 124.253 76.747 124.15L77.047 123.73C77.1103 123.637 77.1953 123.59 77.302 123.59C77.372 123.59 77.4486 123.617 77.532 123.67C77.6186 123.72 77.7203 123.777 77.837 123.84C77.9536 123.903 78.092 123.962 78.252 124.015C78.412 124.065 78.602 124.09 78.822 124.09C79.0653 124.09 79.2836 124.052 79.477 123.975C79.6736 123.895 79.8386 123.783 79.972 123.64C80.1086 123.497 80.212 123.325 80.282 123.125C80.3553 122.925 80.392 122.703 80.392 122.46C80.392 122.243 80.3603 122.048 80.297 121.875C80.2336 121.702 80.1386 121.553 80.012 121.43C79.8853 121.307 79.727 121.213 79.537 121.15C79.347 121.083 79.1253 121.05 78.872 121.05C78.5186 121.05 78.142 121.113 77.742 121.24L77.127 121.06L77.712 117.67H81.152V118.095C81.152 118.235 81.107 118.35 81.017 118.44C80.9303 118.527 80.7836 118.57 80.577 118.57H78.392L78.082 120.35ZM86.0744 119.405C86.0744 119.685 86.0294 119.935 85.9394 120.155C85.8527 120.375 85.7361 120.562 85.5894 120.715C85.4427 120.865 85.2711 120.982 85.0744 121.065C84.8811 121.145 84.6777 121.185 84.4644 121.185C84.2344 121.185 84.0211 121.145 83.8244 121.065C83.6311 120.982 83.4627 120.865 83.3194 120.715C83.1761 120.562 83.0627 120.375 82.9794 120.155C82.8994 119.935 82.8594 119.685 82.8594 119.405C82.8594 119.118 82.8994 118.863 82.9794 118.64C83.0627 118.417 83.1761 118.228 83.3194 118.075C83.4627 117.918 83.6311 117.8 83.8244 117.72C84.0211 117.637 84.2344 117.595 84.4644 117.595C84.6944 117.595 84.9061 117.637 85.0994 117.72C85.2961 117.8 85.4661 117.918 85.6094 118.075C85.7561 118.228 85.8694 118.417 85.9494 118.64C86.0327 118.863 86.0744 119.118 86.0744 119.405ZM85.3144 119.405C85.3144 119.192 85.2911 119.012 85.2444 118.865C85.2011 118.715 85.1411 118.595 85.0644 118.505C84.9877 118.412 84.8977 118.345 84.7944 118.305C84.6911 118.262 84.5811 118.24 84.4644 118.24C84.3477 118.24 84.2377 118.262 84.1344 118.305C84.0311 118.345 83.9411 118.412 83.8644 118.505C83.7911 118.595 83.7327 118.715 83.6894 118.865C83.6461 119.012 83.6244 119.192 83.6244 119.405C83.6244 119.612 83.6461 119.788 83.6894 119.935C83.7327 120.078 83.7911 120.195 83.8644 120.285C83.9411 120.375 84.0311 120.44 84.1344 120.48C84.2377 120.52 84.3477 120.54 84.4644 120.54C84.5811 120.54 84.6911 120.52 84.7944 120.48C84.8977 120.44 84.9877 120.375 85.0644 120.285C85.1411 120.195 85.2011 120.078 85.2444 119.935C85.2911 119.788 85.3144 119.612 85.3144 119.405ZM88.5744 117.83C88.6111 117.787 88.6527 117.75 88.6994 117.72C88.7494 117.687 88.8177 117.67 88.9044 117.67H89.6094L84.3394 124.695C84.3027 124.742 84.2594 124.78 84.2094 124.81C84.1594 124.837 84.0994 124.85 84.0294 124.85H83.3044L88.5744 117.83ZM90.0694 123.155C90.0694 123.435 90.0244 123.685 89.9344 123.905C89.8477 124.125 89.7311 124.312 89.5844 124.465C89.4377 124.615 89.2661 124.732 89.0694 124.815C88.8761 124.895 88.6727 124.935 88.4594 124.935C88.2294 124.935 88.0161 124.895 87.8194 124.815C87.6261 124.732 87.4577 124.615 87.3144 124.465C87.1711 124.312 87.0577 124.125 86.9744 123.905C86.8944 123.685 86.8544 123.435 86.8544 123.155C86.8544 122.868 86.8944 122.613 86.9744 122.39C87.0577 122.167 87.1711 121.978 87.3144 121.825C87.4577 121.668 87.6261 121.55 87.8194 121.47C88.0161 121.39 88.2294 121.35 88.4594 121.35C88.6894 121.35 88.9011 121.39 89.0944 121.47C89.2911 121.55 89.4611 121.668 89.6044 121.825C89.7511 121.978 89.8644 122.167 89.9444 122.39C90.0277 122.613 90.0694 122.868 90.0694 123.155ZM89.3094 123.155C89.3094 122.942 89.2861 122.762 89.2394 122.615C89.1961 122.468 89.1361 122.35 89.0594 122.26C88.9827 122.167 88.8927 122.1 88.7894 122.06C88.6861 122.017 88.5761 121.995 88.4594 121.995C88.3394 121.995 88.2277 122.017 88.1244 122.06C88.0244 122.1 87.9361 122.167 87.8594 122.26C87.7861 122.35 87.7277 122.468 87.6844 122.615C87.6411 122.762 87.6194 122.942 87.6194 123.155C87.6194 123.365 87.6411 123.542 87.6844 123.685C87.7277 123.828 87.7861 123.945 87.8594 124.035C87.9361 124.125 88.0244 124.19 88.1244 124.23C88.2277 124.27 88.3394 124.29 88.4594 124.29C88.5761 124.29 88.6861 124.27 88.7894 124.23C88.8927 124.19 88.9827 124.125 89.0594 124.035C89.1361 123.945 89.1961 123.828 89.2394 123.685C89.2861 123.542 89.3094 123.365 89.3094 123.155Z" fill="black"/>
<path d="M31.596 74.7583C31.7027 74.7583 31.786 74.79 31.846 74.8533C31.906 74.9133 31.936 74.9933 31.936 75.0933V75.6833H27.116V75.3483C27.116 75.2817 27.1293 75.2117 27.156 75.1383C27.1827 75.0617 27.2277 74.9933 27.291 74.9333L29.561 72.6583C29.751 72.4683 29.9227 72.285 30.076 72.1083C30.2293 71.9317 30.3593 71.7567 30.466 71.5833C30.5727 71.4067 30.6543 71.2267 30.711 71.0433C30.771 70.86 30.801 70.6667 30.801 70.4633C30.801 70.2633 30.7693 70.0883 30.706 69.9383C30.6427 69.785 30.556 69.6583 30.446 69.5583C30.336 69.4583 30.206 69.3833 30.056 69.3333C29.906 69.2833 29.7443 69.2583 29.571 69.2583C29.3977 69.2583 29.2377 69.2833 29.091 69.3333C28.9477 69.3833 28.8193 69.4533 28.706 69.5433C28.5927 69.6333 28.4977 69.74 28.421 69.8633C28.3443 69.9867 28.2893 70.12 28.256 70.2633C28.2093 70.39 28.1493 70.475 28.076 70.5183C28.006 70.5617 27.9027 70.5717 27.766 70.5483L27.256 70.4583C27.3027 70.125 27.3943 69.8317 27.531 69.5783C27.6677 69.325 27.8393 69.1133 28.046 68.9433C28.2527 68.77 28.4893 68.64 28.756 68.5533C29.026 68.4667 29.316 68.4233 29.626 68.4233C29.9393 68.4233 30.2277 68.47 30.491 68.5633C30.7577 68.6533 30.9877 68.785 31.181 68.9583C31.3743 69.1317 31.526 69.3433 31.636 69.5933C31.746 69.84 31.801 70.12 31.801 70.4333C31.801 70.7 31.761 70.9483 31.681 71.1783C31.6043 71.405 31.4977 71.6217 31.361 71.8283C31.2277 72.035 31.071 72.2367 30.891 72.4333C30.7143 72.6267 30.526 72.8233 30.326 73.0233L28.506 74.8833C28.646 74.8467 28.786 74.8167 28.926 74.7933C29.0693 74.77 29.2043 74.7583 29.331 74.7583H31.596ZM35.7835 74.9883C36.0101 74.9883 36.2118 74.9567 36.3885 74.8933C36.5651 74.83 36.7151 74.7417 36.8385 74.6283C36.9618 74.5117 37.0551 74.3733 37.1185 74.2133C37.1818 74.0533 37.2135 73.8783 37.2135 73.6883C37.2135 73.455 37.1751 73.255 37.0985 73.0883C37.0218 72.9183 36.9185 72.78 36.7885 72.6733C36.6585 72.5633 36.5068 72.4833 36.3335 72.4333C36.1601 72.38 35.9768 72.3533 35.7835 72.3533C35.5868 72.3533 35.4018 72.38 35.2285 72.4333C35.0551 72.4833 34.9035 72.5633 34.7735 72.6733C34.6435 72.78 34.5401 72.9183 34.4635 73.0883C34.3901 73.255 34.3535 73.455 34.3535 73.6883C34.3535 73.8783 34.3851 74.0533 34.4485 74.2133C34.5118 74.3733 34.6051 74.5117 34.7285 74.6283C34.8518 74.7417 35.0018 74.83 35.1785 74.8933C35.3551 74.9567 35.5568 74.9883 35.7835 74.9883ZM35.7835 69.1733C35.5768 69.1733 35.3951 69.205 35.2385 69.2683C35.0851 69.3283 34.9568 69.4117 34.8535 69.5183C34.7501 69.625 34.6718 69.7483 34.6185 69.8883C34.5685 70.0283 34.5435 70.1783 34.5435 70.3383C34.5435 70.495 34.5651 70.6483 34.6085 70.7983C34.6551 70.945 34.7268 71.0767 34.8235 71.1933C34.9235 71.3067 35.0518 71.3983 35.2085 71.4683C35.3651 71.5383 35.5568 71.5733 35.7835 71.5733C36.0068 71.5733 36.1968 71.5383 36.3535 71.4683C36.5135 71.3983 36.6418 71.3067 36.7385 71.1933C36.8385 71.0767 36.9101 70.945 36.9535 70.7983C37.0001 70.6483 37.0235 70.495 37.0235 70.3383C37.0235 70.1783 36.9968 70.0283 36.9435 69.8883C36.8935 69.7483 36.8168 69.625 36.7135 69.5183C36.6101 69.4117 36.4801 69.3283 36.3235 69.2683C36.1701 69.205 35.9901 69.1733 35.7835 69.1733ZM36.8585 71.9383C37.3051 72.0717 37.6435 72.2867 37.8735 72.5833C38.1068 72.88 38.2235 73.255 38.2235 73.7083C38.2235 74.0217 38.1635 74.305 38.0435 74.5583C37.9268 74.8117 37.7601 75.0283 37.5435 75.2083C37.3301 75.385 37.0735 75.5217 36.7735 75.6183C36.4735 75.715 36.1435 75.7633 35.7835 75.7633C35.4235 75.7633 35.0935 75.715 34.7935 75.6183C34.4935 75.5217 34.2351 75.385 34.0185 75.2083C33.8051 75.0283 33.6385 74.8117 33.5185 74.5583C33.4018 74.305 33.3435 74.0217 33.3435 73.7083C33.3435 73.255 33.4585 72.88 33.6885 72.5833C33.9218 72.2867 34.2618 72.0717 34.7085 71.9383C34.3385 71.7983 34.0601 71.59 33.8735 71.3133C33.6868 71.0333 33.5935 70.7017 33.5935 70.3183C33.5935 70.0517 33.6451 69.8033 33.7485 69.5733C33.8551 69.34 34.0035 69.1383 34.1935 68.9683C34.3868 68.7983 34.6185 68.665 34.8885 68.5683C35.1585 68.4717 35.4568 68.4233 35.7835 68.4233C36.1101 68.4233 36.4085 68.4717 36.6785 68.5683C36.9485 68.665 37.1785 68.7983 37.3685 68.9683C37.5618 69.1383 37.7101 69.34 37.8135 69.5733C37.9201 69.8033 37.9735 70.0517 37.9735 70.3183C37.9735 70.7017 37.8801 71.0333 37.6935 71.3133C37.5068 71.59 37.2285 71.7983 36.8585 71.9383ZM42.7409 70.2383C42.7409 70.5183 42.6959 70.7683 42.6059 70.9883C42.5192 71.2083 42.4026 71.395 42.2559 71.5483C42.1092 71.6983 41.9376 71.815 41.7409 71.8983C41.5476 71.9783 41.3442 72.0183 41.1309 72.0183C40.9009 72.0183 40.6876 71.9783 40.4909 71.8983C40.2976 71.815 40.1292 71.6983 39.9859 71.5483C39.8426 71.395 39.7292 71.2083 39.6459 70.9883C39.5659 70.7683 39.5259 70.5183 39.5259 70.2383C39.5259 69.9517 39.5659 69.6967 39.6459 69.4733C39.7292 69.25 39.8426 69.0617 39.9859 68.9083C40.1292 68.7517 40.2976 68.6333 40.4909 68.5533C40.6876 68.47 40.9009 68.4283 41.1309 68.4283C41.3609 68.4283 41.5726 68.47 41.7659 68.5533C41.9626 68.6333 42.1326 68.7517 42.2759 68.9083C42.4226 69.0617 42.5359 69.25 42.6159 69.4733C42.6992 69.6967 42.7409 69.9517 42.7409 70.2383ZM41.9809 70.2383C41.9809 70.025 41.9576 69.845 41.9109 69.6983C41.8676 69.5483 41.8076 69.4283 41.7309 69.3383C41.6542 69.245 41.5642 69.1783 41.4609 69.1383C41.3576 69.095 41.2476 69.0733 41.1309 69.0733C41.0142 69.0733 40.9042 69.095 40.8009 69.1383C40.6976 69.1783 40.6076 69.245 40.5309 69.3383C40.4576 69.4283 40.3992 69.5483 40.3559 69.6983C40.3126 69.845 40.2909 70.025 40.2909 70.2383C40.2909 70.445 40.3126 70.6217 40.3559 70.7683C40.3992 70.9117 40.4576 71.0283 40.5309 71.1183C40.6076 71.2083 40.6976 71.2733 40.8009 71.3133C40.9042 71.3533 41.0142 71.3733 41.1309 71.3733C41.2476 71.3733 41.3576 71.3533 41.4609 71.3133C41.5642 71.2733 41.6542 71.2083 41.7309 71.1183C41.8076 71.0283 41.8676 70.9117 41.9109 70.7683C41.9576 70.6217 41.9809 70.445 41.9809 70.2383ZM45.2409 68.6633C45.2776 68.62 45.3192 68.5833 45.3659 68.5533C45.4159 68.52 45.4842 68.5033 45.5709 68.5033H46.2759L41.0059 75.5283C40.9692 75.575 40.9259 75.6133 40.8759 75.6433C40.8259 75.67 40.7659 75.6833 40.6959 75.6833H39.9709L45.2409 68.6633ZM46.7359 73.9883C46.7359 74.2683 46.6909 74.5183 46.6009 74.7383C46.5142 74.9583 46.3976 75.145 46.2509 75.2983C46.1042 75.4483 45.9326 75.565 45.7359 75.6483C45.5426 75.7283 45.3392 75.7683 45.1259 75.7683C44.8959 75.7683 44.6826 75.7283 44.4859 75.6483C44.2926 75.565 44.1242 75.4483 43.9809 75.2983C43.8376 75.145 43.7242 74.9583 43.6409 74.7383C43.5609 74.5183 43.5209 74.2683 43.5209 73.9883C43.5209 73.7017 43.5609 73.4467 43.6409 73.2233C43.7242 73 43.8376 72.8117 43.9809 72.6583C44.1242 72.5017 44.2926 72.3833 44.4859 72.3033C44.6826 72.2233 44.8959 72.1833 45.1259 72.1833C45.3559 72.1833 45.5676 72.2233 45.7609 72.3033C45.9576 72.3833 46.1276 72.5017 46.2709 72.6583C46.4176 72.8117 46.5309 73 46.6109 73.2233C46.6942 73.4467 46.7359 73.7017 46.7359 73.9883ZM45.9759 73.9883C45.9759 73.775 45.9526 73.595 45.9059 73.4483C45.8626 73.3017 45.8026 73.1833 45.7259 73.0933C45.6492 73 45.5592 72.9333 45.4559 72.8933C45.3526 72.85 45.2426 72.8283 45.1259 72.8283C45.0059 72.8283 44.8942 72.85 44.7909 72.8933C44.6909 72.9333 44.6026 73 44.5259 73.0933C44.4526 73.1833 44.3942 73.3017 44.3509 73.4483C44.3076 73.595 44.2859 73.775 44.2859 73.9883C44.2859 74.1983 44.3076 74.375 44.3509 74.5183C44.3942 74.6617 44.4526 74.7783 44.5259 74.8683C44.6026 74.9583 44.6909 75.0233 44.7909 75.0633C44.8942 75.1033 45.0059 75.1233 45.1259 75.1233C45.2426 75.1233 45.3526 75.1033 45.4559 75.0633C45.5592 75.0233 45.6492 74.9583 45.7259 74.8683C45.8026 74.7783 45.8626 74.6617 45.9059 74.5183C45.9526 74.375 45.9759 74.1983 45.9759 73.9883Z" fill="black"/>
<path d="M85.763 41.4251C85.8697 41.4251 85.953 41.4568 86.013 41.5201C86.073 41.5801 86.103 41.6601 86.103 41.7601V42.3501H81.283V42.0151C81.283 41.9484 81.2963 41.8784 81.323 41.8051C81.3497 41.7284 81.3947 41.6601 81.458 41.6001L83.728 39.3251C83.918 39.1351 84.0897 38.9518 84.243 38.7751C84.3963 38.5984 84.5263 38.4234 84.633 38.2501C84.7397 38.0734 84.8213 37.8934 84.878 37.7101C84.938 37.5268 84.968 37.3334 84.968 37.1301C84.968 36.9301 84.9363 36.7551 84.873 36.6051C84.8097 36.4518 84.723 36.3251 84.613 36.2251C84.503 36.1251 84.373 36.0501 84.223 36.0001C84.073 35.9501 83.9113 35.9251 83.738 35.9251C83.5647 35.9251 83.4047 35.9501 83.258 36.0001C83.1147 36.0501 82.9863 36.1201 82.873 36.2101C82.7597 36.3001 82.6647 36.4068 82.588 36.5301C82.5113 36.6534 82.4563 36.7868 82.423 36.9301C82.3763 37.0568 82.3163 37.1418 82.243 37.1851C82.173 37.2284 82.0697 37.2384 81.933 37.2151L81.423 37.1251C81.4697 36.7918 81.5613 36.4984 81.698 36.2451C81.8347 35.9918 82.0063 35.7801 82.213 35.6101C82.4197 35.4368 82.6563 35.3068 82.923 35.2201C83.193 35.1334 83.483 35.0901 83.793 35.0901C84.1063 35.0901 84.3947 35.1368 84.658 35.2301C84.9247 35.3201 85.1547 35.4518 85.348 35.6251C85.5413 35.7984 85.693 36.0101 85.803 36.2601C85.913 36.5068 85.968 36.7868 85.968 37.1001C85.968 37.3668 85.928 37.6151 85.848 37.8451C85.7713 38.0718 85.6647 38.2884 85.528 38.4951C85.3947 38.7018 85.238 38.9034 85.058 39.1001C84.8813 39.2934 84.693 39.4901 84.493 39.6901L82.673 41.5501C82.813 41.5134 82.953 41.4834 83.093 41.4601C83.2363 41.4368 83.3713 41.4251 83.498 41.4251H85.763ZM91.9805 41.4251C92.0871 41.4251 92.1705 41.4568 92.2305 41.5201C92.2905 41.5801 92.3205 41.6601 92.3205 41.7601V42.3501H87.5005V42.0151C87.5005 41.9484 87.5138 41.8784 87.5405 41.8051C87.5671 41.7284 87.6121 41.6601 87.6755 41.6001L89.9455 39.3251C90.1355 39.1351 90.3071 38.9518 90.4605 38.7751C90.6138 38.5984 90.7438 38.4234 90.8505 38.2501C90.9571 38.0734 91.0388 37.8934 91.0955 37.7101C91.1555 37.5268 91.1855 37.3334 91.1855 37.1301C91.1855 36.9301 91.1538 36.7551 91.0905 36.6051C91.0271 36.4518 90.9405 36.3251 90.8305 36.2251C90.7205 36.1251 90.5905 36.0501 90.4405 36.0001C90.2905 35.9501 90.1288 35.9251 89.9555 35.9251C89.7821 35.9251 89.6221 35.9501 89.4755 36.0001C89.3321 36.0501 89.2038 36.1201 89.0905 36.2101C88.9771 36.3001 88.8821 36.4068 88.8055 36.5301C88.7288 36.6534 88.6738 36.7868 88.6405 36.9301C88.5938 37.0568 88.5338 37.1418 88.4605 37.1851C88.3905 37.2284 88.2871 37.2384 88.1505 37.2151L87.6405 37.1251C87.6871 36.7918 87.7788 36.4984 87.9155 36.2451C88.0521 35.9918 88.2238 35.7801 88.4305 35.6101C88.6371 35.4368 88.8738 35.3068 89.1405 35.2201C89.4105 35.1334 89.7005 35.0901 90.0105 35.0901C90.3238 35.0901 90.6121 35.1368 90.8755 35.2301C91.1421 35.3201 91.3721 35.4518 91.5655 35.6251C91.7588 35.7984 91.9105 36.0101 92.0205 36.2601C92.1305 36.5068 92.1855 36.7868 92.1855 37.1001C92.1855 37.3668 92.1455 37.6151 92.0655 37.8451C91.9888 38.0718 91.8821 38.2884 91.7455 38.4951C91.6121 38.7018 91.4555 38.9034 91.2755 39.1001C91.0988 39.2934 90.9105 39.4901 90.7105 39.6901L88.8905 41.5501C89.0305 41.5134 89.1705 41.4834 89.3105 41.4601C89.4538 41.4368 89.5888 41.4251 89.7155 41.4251H91.9805ZM96.9079 36.9051C96.9079 37.1851 96.8629 37.4351 96.7729 37.6551C96.6862 37.8751 96.5696 38.0618 96.4229 38.2151C96.2762 38.3651 96.1046 38.4818 95.9079 38.5651C95.7146 38.6451 95.5112 38.6851 95.2979 38.6851C95.0679 38.6851 94.8546 38.6451 94.6579 38.5651C94.4646 38.4818 94.2962 38.3651 94.1529 38.2151C94.0096 38.0618 93.8962 37.8751 93.8129 37.6551C93.7329 37.4351 93.6929 37.1851 93.6929 36.9051C93.6929 36.6184 93.7329 36.3634 93.8129 36.1401C93.8962 35.9168 94.0096 35.7284 94.1529 35.5751C94.2962 35.4184 94.4646 35.3001 94.6579 35.2201C94.8546 35.1368 95.0679 35.0951 95.2979 35.0951C95.5279 35.0951 95.7396 35.1368 95.9329 35.2201C96.1296 35.3001 96.2996 35.4184 96.4429 35.5751C96.5896 35.7284 96.7029 35.9168 96.7829 36.1401C96.8662 36.3634 96.9079 36.6184 96.9079 36.9051ZM96.1479 36.9051C96.1479 36.6918 96.1246 36.5118 96.0779 36.3651C96.0346 36.2151 95.9746 36.0951 95.8979 36.0051C95.8212 35.9118 95.7312 35.8451 95.6279 35.8051C95.5246 35.7618 95.4146 35.7401 95.2979 35.7401C95.1812 35.7401 95.0712 35.7618 94.9679 35.8051C94.8646 35.8451 94.7746 35.9118 94.6979 36.0051C94.6246 36.0951 94.5662 36.2151 94.5229 36.3651C94.4796 36.5118 94.4579 36.6918 94.4579 36.9051C94.4579 37.1118 94.4796 37.2884 94.5229 37.4351C94.5662 37.5784 94.6246 37.6951 94.6979 37.7851C94.7746 37.8751 94.8646 37.9401 94.9679 37.9801C95.0712 38.0201 95.1812 38.0401 95.2979 38.0401C95.4146 38.0401 95.5246 38.0201 95.6279 37.9801C95.7312 37.9401 95.8212 37.8751 95.8979 37.7851C95.9746 37.6951 96.0346 37.5784 96.0779 37.4351C96.1246 37.2884 96.1479 37.1118 96.1479 36.9051ZM99.4079 35.3301C99.4446 35.2868 99.4862 35.2501 99.5329 35.2201C99.5829 35.1868 99.6512 35.1701 99.7379 35.1701H100.443L95.1729 42.1951C95.1362 42.2418 95.0929 42.2801 95.0429 42.3101C94.9929 42.3368 94.9329 42.3501 94.8629 42.3501H94.1379L99.4079 35.3301ZM100.903 40.6551C100.903 40.9351 100.858 41.1851 100.768 41.4051C100.681 41.6251 100.565 41.8118 100.418 41.9651C100.271 42.1151 100.1 42.2318 99.9029 42.3151C99.7096 42.3951 99.5062 42.4351 99.2929 42.4351C99.0629 42.4351 98.8496 42.3951 98.6529 42.3151C98.4596 42.2318 98.2912 42.1151 98.1479 41.9651C98.0046 41.8118 97.8912 41.6251 97.8079 41.4051C97.7279 41.1851 97.6879 40.9351 97.6879 40.6551C97.6879 40.3684 97.7279 40.1134 97.8079 39.8901C97.8912 39.6668 98.0046 39.4784 98.1479 39.3251C98.2912 39.1684 98.4596 39.0501 98.6529 38.9701C98.8496 38.8901 99.0629 38.8501 99.2929 38.8501C99.5229 38.8501 99.7346 38.8901 99.9279 38.9701C100.125 39.0501 100.295 39.1684 100.438 39.3251C100.585 39.4784 100.698 39.6668 100.778 39.8901C100.861 40.1134 100.903 40.3684 100.903 40.6551ZM100.143 40.6551C100.143 40.4418 100.12 40.2618 100.073 40.1151C100.03 39.9684 99.9696 39.8501 99.8929 39.7601C99.8162 39.6668 99.7262 39.6001 99.6229 39.5601C99.5196 39.5168 99.4096 39.4951 99.2929 39.4951C99.1729 39.4951 99.0612 39.5168 98.9579 39.5601C98.8579 39.6001 98.7696 39.6668 98.6929 39.7601C98.6196 39.8501 98.5612 39.9684 98.5179 40.1151C98.4746 40.2618 98.4529 40.4418 98.4529 40.6551C98.4529 40.8651 98.4746 41.0418 98.5179 41.1851C98.5612 41.3284 98.6196 41.4451 98.6929 41.5351C98.7696 41.6251 98.8579 41.6901 98.9579 41.7301C99.0612 41.7701 99.1729 41.7901 99.2929 41.7901C99.4096 41.7901 99.5196 41.7701 99.6229 41.7301C99.7262 41.6901 99.8162 41.6251 99.8929 41.5351C99.9696 41.4451 100.03 41.3284 100.073 41.1851C100.12 41.0418 100.143 40.8651 100.143 40.6551Z" fill="black"/>
<path d="M121.475 66.4566C121.475 66.8999 121.595 67.2416 121.835 67.4816C122.075 67.7216 122.408 67.8416 122.835 67.8416C123.065 67.8416 123.268 67.8049 123.445 67.7316C123.621 67.6549 123.77 67.5549 123.89 67.4316C124.013 67.3049 124.106 67.1599 124.17 66.9966C124.233 66.8299 124.265 66.6566 124.265 66.4766C124.265 66.2599 124.23 66.0649 124.16 65.8916C124.093 65.7149 123.998 65.5666 123.875 65.4466C123.751 65.3233 123.605 65.2299 123.435 65.1666C123.268 65.0999 123.083 65.0666 122.88 65.0666C122.67 65.0666 122.478 65.1016 122.305 65.1716C122.131 65.2383 121.983 65.3333 121.86 65.4566C121.736 65.5799 121.641 65.7266 121.575 65.8966C121.508 66.0666 121.475 66.2533 121.475 66.4566ZM123.445 68.6766C123.575 68.5066 123.696 68.3399 123.81 68.1766C123.63 68.3133 123.428 68.4166 123.205 68.4866C122.985 68.5566 122.75 68.5916 122.5 68.5916C122.236 68.5916 121.983 68.5466 121.74 68.4566C121.5 68.3666 121.286 68.2349 121.1 68.0616C120.916 67.8849 120.77 67.6683 120.66 67.4116C120.55 67.1549 120.495 66.8599 120.495 66.5266C120.495 66.2133 120.553 65.9183 120.67 65.6416C120.786 65.3649 120.95 65.1249 121.16 64.9216C121.373 64.7149 121.626 64.5533 121.92 64.4366C122.216 64.3166 122.541 64.2566 122.895 64.2566C123.245 64.2566 123.561 64.3133 123.845 64.4266C124.131 64.5399 124.375 64.6999 124.575 64.9066C124.775 65.1099 124.93 65.3549 125.04 65.6416C125.15 65.9283 125.205 66.2433 125.205 66.5866C125.205 66.7966 125.185 66.9966 125.145 67.1866C125.108 67.3766 125.053 67.5616 124.98 67.7416C124.91 67.9216 124.823 68.0999 124.72 68.2766C124.62 68.4499 124.505 68.6283 124.375 68.8116L122.65 71.2866C122.603 71.3533 122.535 71.4083 122.445 71.4516C122.358 71.4949 122.258 71.5166 122.145 71.5166H121.25L123.445 68.6766ZM129.857 66.0716C129.857 66.3516 129.812 66.6016 129.722 66.8216C129.635 67.0416 129.519 67.2283 129.372 67.3816C129.225 67.5316 129.054 67.6483 128.857 67.7316C128.664 67.8116 128.46 67.8516 128.247 67.8516C128.017 67.8516 127.804 67.8116 127.607 67.7316C127.414 67.6483 127.245 67.5316 127.102 67.3816C126.959 67.2283 126.845 67.0416 126.762 66.8216C126.682 66.6016 126.642 66.3516 126.642 66.0716C126.642 65.7849 126.682 65.5299 126.762 65.3066C126.845 65.0833 126.959 64.8949 127.102 64.7416C127.245 64.5849 127.414 64.4666 127.607 64.3866C127.804 64.3033 128.017 64.2616 128.247 64.2616C128.477 64.2616 128.689 64.3033 128.882 64.3866C129.079 64.4666 129.249 64.5849 129.392 64.7416C129.539 64.8949 129.652 65.0833 129.732 65.3066C129.815 65.5299 129.857 65.7849 129.857 66.0716ZM129.097 66.0716C129.097 65.8583 129.074 65.6783 129.027 65.5316C128.984 65.3816 128.924 65.2616 128.847 65.1716C128.77 65.0783 128.68 65.0116 128.577 64.9716C128.474 64.9283 128.364 64.9066 128.247 64.9066C128.13 64.9066 128.02 64.9283 127.917 64.9716C127.814 65.0116 127.724 65.0783 127.647 65.1716C127.574 65.2616 127.515 65.3816 127.472 65.5316C127.429 65.6783 127.407 65.8583 127.407 66.0716C127.407 66.2783 127.429 66.4549 127.472 66.6016C127.515 66.7449 127.574 66.8616 127.647 66.9516C127.724 67.0416 127.814 67.1066 127.917 67.1466C128.02 67.1866 128.13 67.2066 128.247 67.2066C128.364 67.2066 128.474 67.1866 128.577 67.1466C128.68 67.1066 128.77 67.0416 128.847 66.9516C128.924 66.8616 128.984 66.7449 129.027 66.6016C129.074 66.4549 129.097 66.2783 129.097 66.0716ZM132.357 64.4966C132.394 64.4533 132.435 64.4166 132.482 64.3866C132.532 64.3533 132.6 64.3366 132.687 64.3366H133.392L128.122 71.3616C128.085 71.4083 128.042 71.4466 127.992 71.4766C127.942 71.5033 127.882 71.5166 127.812 71.5166H127.087L132.357 64.4966ZM133.852 69.8216C133.852 70.1016 133.807 70.3516 133.717 70.5716C133.63 70.7916 133.514 70.9783 133.367 71.1316C133.22 71.2816 133.049 71.3983 132.852 71.4816C132.659 71.5616 132.455 71.6016 132.242 71.6016C132.012 71.6016 131.799 71.5616 131.602 71.4816C131.409 71.3983 131.24 71.2816 131.097 71.1316C130.954 70.9783 130.84 70.7916 130.757 70.5716C130.677 70.3516 130.637 70.1016 130.637 69.8216C130.637 69.5349 130.677 69.2799 130.757 69.0566C130.84 68.8333 130.954 68.6449 131.097 68.4916C131.24 68.3349 131.409 68.2166 131.602 68.1366C131.799 68.0566 132.012 68.0166 132.242 68.0166C132.472 68.0166 132.684 68.0566 132.877 68.1366C133.074 68.2166 133.244 68.3349 133.387 68.4916C133.534 68.6449 133.647 68.8333 133.727 69.0566C133.81 69.2799 133.852 69.5349 133.852 69.8216ZM133.092 69.8216C133.092 69.6083 133.069 69.4283 133.022 69.2816C132.979 69.1349 132.919 69.0166 132.842 68.9266C132.765 68.8333 132.675 68.7666 132.572 68.7266C132.469 68.6833 132.359 68.6616 132.242 68.6616C132.122 68.6616 132.01 68.6833 131.907 68.7266C131.807 68.7666 131.719 68.8333 131.642 68.9266C131.569 69.0166 131.51 69.1349 131.467 69.2816C131.424 69.4283 131.402 69.6083 131.402 69.8216C131.402 70.0316 131.424 70.2083 131.467 70.3516C131.51 70.4949 131.569 70.6116 131.642 70.7016C131.719 70.7916 131.807 70.8566 131.907 70.8966C132.01 70.9366 132.122 70.9566 132.242 70.9566C132.359 70.9566 132.469 70.9366 132.572 70.8966C132.675 70.8566 132.765 70.7916 132.842 70.7016C132.919 70.6116 132.979 70.4949 133.022 70.3516C133.069 70.2083 133.092 70.0316 133.092 69.8216Z" fill="black"/>
<defs>
<linearGradient id="paint0_linear_104_803" x1="119.294" y1="-30.1793" x2="18.9199" y2="-18.2762" gradientUnits="userSpaceOnUse">
<stop stop-color="#812DE2"/>
<stop offset="1" stop-color="#F44E77"/>
</linearGradient>
<linearGradient id="paint1_linear_104_803" x1="119.294" y1="-30.1793" x2="18.9199" y2="-18.2762" gradientUnits="userSpaceOnUse">
<stop stop-color="#812DE2"/>
<stop offset="1" stop-color="#F44E77"/>
</linearGradient>
<linearGradient id="paint2_linear_104_803" x1="119.294" y1="-30.1793" x2="18.9199" y2="-18.2762" gradientUnits="userSpaceOnUse">
<stop stop-color="#812DE2"/>
<stop offset="1" stop-color="#F44E77"/>
</linearGradient>
<linearGradient id="paint3_linear_104_803" x1="80.4162" y1="0.68335" x2="80.4162" y2="161.517" gradientUnits="userSpaceOnUse">
<stop stop-color="#B8C0CC"/>
<stop offset="1" stop-color="#423EE0" stop-opacity="0.38"/>
</linearGradient>
<linearGradient id="paint4_linear_104_803" x1="119.294" y1="-30.1793" x2="18.9199" y2="-18.2762" gradientUnits="userSpaceOnUse">
<stop stop-color="#812DE2"/>
<stop offset="1" stop-color="#F44E77"/>
</linearGradient>
</defs>
</svg>
