<svg width="47" height="36" viewBox="0 0 47 36" fill="none" xmlns="http://www.w3.org/2000/svg">
<path d="M14.7498 14.9415C14.7498 13.3944 15.3644 11.9107 16.4584 10.8167C17.5523 9.72274 19.0361 9.10815 20.5832 9.10815C22.1303 9.10815 23.614 9.72274 24.708 10.8167C25.8019 11.9107 26.4165 13.3944 26.4165 14.9415C26.4165 16.4886 25.8019 17.9723 24.708 19.0663C23.614 20.1602 22.1303 20.7748 20.5832 20.7748C19.0361 20.7748 17.5523 20.1602 16.4584 19.0663C15.3644 17.9723 14.7498 16.4886 14.7498 14.9415ZM20.5832 12.0248C19.8096 12.0248 19.0678 12.3321 18.5208 12.8791C17.9738 13.4261 17.6665 14.1679 17.6665 14.9415C17.6665 15.715 17.9738 16.4569 18.5208 17.0039C19.0678 17.5509 19.8096 17.8582 20.5832 17.8582C21.3567 17.8582 22.0986 17.5509 22.6456 17.0039C23.1925 16.4569 23.4998 15.715 23.4998 14.9415C23.4998 14.1679 23.1925 13.4261 22.6456 12.8791C22.0986 12.3321 21.3567 12.0248 20.5832 12.0248ZM4.5415 0.358154C3.38118 0.358154 2.26838 0.81909 1.44791 1.63956C0.62744 2.46003 0.166504 3.57283 0.166504 4.73315V25.1498C0.166504 26.3101 0.62744 27.4229 1.44791 28.2434C2.26838 29.0639 3.38118 29.5248 4.5415 29.5248H36.6248C37.7852 29.5248 38.898 29.0639 39.7184 28.2434C40.5389 27.4229 40.9998 26.3101 40.9998 25.1498V4.73315C40.9998 3.57283 40.5389 2.46003 39.7184 1.63956C38.898 0.81909 37.7852 0.358154 36.6248 0.358154H4.5415ZM3.08317 4.73315C3.08317 4.34638 3.23682 3.97545 3.51031 3.70196C3.7838 3.42847 4.15473 3.27482 4.5415 3.27482H8.9165V6.19149C8.9165 6.96504 8.60921 7.7069 8.06223 8.25388C7.51525 8.80086 6.77339 9.10815 5.99984 9.10815H3.08317V4.73315ZM3.08317 12.0248H5.99984C7.54693 12.0248 9.03066 11.4102 10.1246 10.3163C11.2186 9.22232 11.8332 7.73858 11.8332 6.19149V3.27482H29.3332V6.19149C29.3332 7.73858 29.9478 9.22232 31.0417 10.3163C32.1357 11.4102 33.6194 12.0248 35.1665 12.0248H38.0832V17.8582H35.1665C33.6194 17.8582 32.1357 18.4727 31.0417 19.5667C29.9478 20.6607 29.3332 22.1444 29.3332 23.6915V26.6082H11.8332V23.6915C11.8332 22.1444 11.2186 20.6607 10.1246 19.5667C9.03066 18.4727 7.54693 17.8582 5.99984 17.8582H3.08317V12.0248ZM32.2498 3.27482H36.6248C37.0116 3.27482 37.3825 3.42847 37.656 3.70196C37.9295 3.97545 38.0832 4.34638 38.0832 4.73315V9.10815H35.1665C34.393 9.10815 33.6511 8.80086 33.1041 8.25388C32.5571 7.7069 32.2498 6.96504 32.2498 6.19149V3.27482ZM38.0832 20.7748V25.1498C38.0832 25.5366 37.9295 25.9075 37.656 26.181C37.3825 26.4545 37.0116 26.6082 36.6248 26.6082H32.2498V23.6915C32.2498 22.9179 32.5571 22.1761 33.1041 21.6291C33.6511 21.0821 34.393 20.7748 35.1665 20.7748H38.0832ZM8.9165 26.6082H4.5415C4.15473 26.6082 3.7838 26.4545 3.51031 26.181C3.23682 25.9075 3.08317 25.5366 3.08317 25.1498V20.7748H5.99984C6.77339 20.7748 7.51525 21.0821 8.06223 21.6291C8.60921 22.1761 8.9165 22.9179 8.9165 23.6915V26.6082ZM43.9165 25.1498C43.9165 27.0837 43.1483 28.9384 41.7808 30.3058C40.4134 31.6733 38.5587 32.4415 36.6248 32.4415H6.24775C6.54946 33.2948 7.10841 34.0336 7.84757 34.556C8.58673 35.0784 9.46972 35.3586 10.3748 35.3582H36.6248C39.3323 35.3582 41.9288 34.2826 43.8432 32.3682C45.7577 30.4538 46.8332 27.8572 46.8332 25.1498V10.5665C46.8336 9.66137 46.5534 8.77839 46.031 8.03922C45.5086 7.30006 44.7699 6.74111 43.9165 6.4394V25.1498Z" fill="#F8F8F8"/>
</svg>
