<svg width="101" height="34" viewBox="0 0 101 34" fill="none" xmlns="http://www.w3.org/2000/svg">
<path d="M38.4489 1.27916L25.4377 33.311H16.8465L10.2414 7.74856C9.84029 6.17407 9.49539 5.59726 8.29566 4.93392C6.33743 3.85293 3.10656 2.83976 0.265222 2.21061L0.453453 1.2797L14.2828 1.2797C16.0456 1.2797 17.6361 2.47605 18.0464 4.54564L21.5594 23.0806L29.9111 1.27916L38.4489 1.27916ZM72.2169 22.8525C72.2102 14.3985 60.7071 13.9328 60.7678 10.1562C60.7868 9.00687 61.8542 7.78488 64.2022 7.47297C65.366 7.31755 68.574 7.19898 72.2216 8.90646L73.6159 2.11394C71.6568 1.39079 69.1373 0.694336 66.0067 0.694336C57.9734 0.694336 52.3412 5.04821 52.324 11.2826C52.2946 15.8939 56.3944 18.4672 59.4811 19.9994C62.6565 21.5686 63.7244 22.577 63.7192 23.9805C63.7072 26.1292 61.2077 27.0777 58.8679 27.1151C54.7831 27.1792 52.4068 25.9882 50.5129 25.0925L49.0741 32.1099C50.9774 32.9981 54.4864 33.773 58.1206 33.812C66.6589 33.8115 72.2233 29.5121 72.2169 22.8525ZM93.4812 33.311H100.998L94.2801 1.27916L87.3422 1.27916C85.7821 1.27916 84.4707 2.20527 83.8951 3.62914L71.8437 33.311H80.3779L82.0492 28.5261H92.4766L93.4812 33.311ZM84.3572 21.9611L88.5762 9.93458L91.0972 21.9611H84.3572ZM50.0618 1.27916L43.4977 33.311H35.3706L41.9373 1.27916L50.0618 1.27916Z" fill="#F2F6FF"/>
</svg>
